PathFileType	4	(X/Y/Z)	C:\Users\Basilio\Documents\Thesis Gigler\squatting_fais\c3dfiles\058\SJ_pre1\markers_experimental.trc
DataRate	CameraRate	NumFrames	NumMarkers	Units	OrigDataRate	OrigDataStartFrame	OrigNumFrames
200.000000	200.000000	4	61	mm	200.000000	786	1573
Frame#	Time	FHD			LBHD			RBHD			C7			T10			CLAV			LSHO			LUUPA			LMUPA			LDUPA			LLEP			LMEP			LRAD			LUL			LRFIN			RSHO			RUPA1			RMUPA			RDUPA			RLEP			RMEP			RRAD			RUL			RUFIN			LASI			RASI			USACR			LSACR			RSACR			LTHI1			LTHI2			LTHI3			LTHI4			LLFC			LMFC			LTIB1			LTIB2			LTIB3			LTIB4			LLMAL			LMMAL			LHEE			LMT1			LMT2			LMT5			RTHI			RTHI2			RTHI3			RTHI4			RLFC			RMFC			RTIB1			RTIB2			RTIB3			RTIB4			RLMAL			RMMAL			RHEE			RMT1			RMT2			RMT5			
		X1	Y1	Z1	X2	Y2	Z2	X3	Y3	Z3	X4	Y4	Z4	X5	Y5	Z5	X6	Y6	Z6	X7	Y7	Z7	X8	Y8	Z8	X9	Y9	Z9	X10	Y10	Z10	X11	Y11	Z11	X12	Y12	Z12	X13	Y13	Z13	X14	Y14	Z14	X15	Y15	Z15	X16	Y16	Z16	X17	Y17	Z17	X18	Y18	Z18	X19	Y19	Z19	X20	Y20	Z20	X21	Y21	Z21	X22	Y22	Z22	X23	Y23	Z23	X24	Y24	Z24	X25	Y25	Z25	X26	Y26	Z26	X27	Y27	Z27	X28	Y28	Z28	X29	Y29	Z29	X30	Y30	Z30	X31	Y31	Z31	X32	Y32	Z32	X33	Y33	Z33	X34	Y34	Z34	X35	Y35	Z35	X36	Y36	Z36	X37	Y37	Z37	X38	Y38	Z38	X39	Y39	Z39	X40	Y40	Z40	X41	Y41	Z41	X42	Y42	Z42	X43	Y43	Z43	X44	Y44	Z44	X45	Y45	Z45	X46	Y46	Z46	X47	Y47	Z47	X48	Y48	Z48	X49	Y49	Z49	X50	Y50	Z50	X51	Y51	Z51	X52	Y52	Z52	X53	Y53	Z53	X54	Y54	Z54	X55	Y55	Z55	X56	Y56	Z56	X57	Y57	Z57	X58	Y58	Z58	X59	Y59	Z59	X60	Y60	Z60	X61	Y61	Z61	

787	3.93	79.87291717529298	1168.187255859375	-831.268981933594	-82.77088928222658	1129.11572265625	-899.9187011718752	85.52732849121095	1177.48876953125	-973.5582275390627	-120.0709686279297	1059.544555664063	-922.9615478515627	-363.4782714843751	887.7669067382815	-908.2039794921877	-29.24774932861329	914.636413574219	-900.2032470703127	4.515307426452638	948.984802246094	-1065.68603515625	-151.7633056640625	953.1514892578127	-1240.1650390625	-165.355941772461	904.9807128906252	-1242.160034179688	-207.9093780517579	931.0858154296877	-1276.564819335938	-287.5717468261719	907.8604125976565	-1308.371459960938	-328.9602661132813	957.5293579101565	-1266.217407226563	-430.4552612304689	781.0881347656252	-1108.052978515625	-440.310028076172	717.4885253906251	-1159.196533203125	-374.5156555175782	743.5369873046876	-1085.359130859375	-11.53169918060303	980.3402099609377	-737.1293334960939	-181.5298309326172	1003.423645019531	-584.7589111328126	-196.5843658447266	954.346862792969	-582.3236083984376	-238.7771911621094	979.1958007812502	-549.0611572265626	-306.1130371093751	971.4057617187502	-519.0501708984376	-360.1512756347657	1006.58154296875	-582.8554687500001	-419.5997924804689	789.3530883789065	-691.1207275390626	-415.7524414062501	739.0003662109376	-628.5148925781251	-366.7700195312501	738.5852661132814	-716.9993896484376	-377.9865417480469	625.2968139648439	-1011.943969726563	-382.1643676757813	639.2571411132814	-779.1746826171877	-477.543182373047	809.7183227539065	-897.2390136718752	-504.6093750000001	790.8199462890627	-924.442810058594	-506.1420288085939	792.667907714844	-867.096374511719	-316.1070556640626	576.5880126953126	-1138.3173828125	-233.0507354736329	562.7191772460939	-1153.40673828125	-204.1699676513672	593.3265380859376	-1126.178100585938	-205.0101928710938	508.0341186523439	-1162.91796875	-135.4760131835938	455.2485961914064	-1165.070068359375	-106.5669631958008	439.533416748047	-1045.956176757813	-116.0670928955078	317.3548889160157	-1136.321533203125	-187.0321807861328	317.3564453125001	-1187.184814453125	-154.8953247070313	291.5592041015626	-1166.564819335938	-202.6177368164063	223.7619018554688	-1139.020751953125	-352.9394226074219	90.43867492675783	-1148.988525390625	-318.4352722167969	92.80733489990236	-1062.507446289063	-420.0811767578126	50.90126800537111	-1095.400390625	-195.0943145751954	60.90261077880861	-1113.468383789063	-198.2533416748047	61.16884613037111	-1160.734985351563	-253.4881286621094	37.29628372192384	-1208.59423828125	-417.3831176757814	583.7427978515626	-665.6306762695314	-352.6826477050782	592.5922241210939	-653.3181762695314	-334.6667785644532	619.5484008789064	-660.1171875000001	-297.4404296875001	531.4307250976564	-639.2338867187501	-165.666748046875	456.5130310058595	-617.5071411132814	-115.1504440307617	443.1801147460939	-738.8886108398439	-170.6738586425782	272.9784240722657	-690.1580810546876	-247.7310180664063	225.8022155761719	-626.1156005859376	-217.0589447021485	204.7395172119141	-653.9481811523439	-242.0715637207032	166.9394836425782	-689.2514038085939	-344.1199951171876	95.06173706054689	-649.9397583007814	-301.4422607421876	97.345329284668	-733.5533447265626	-409.2363281250001	52.61135101318361	-712.0869750976564	-194.4220428466797	54.30333328247072	-670.2561035156251	-204.6708068847657	61.68320465087892	-618.7210693359376	-257.0431518554688	28.27434349060059	-574.7720947265626	
788	3.935	80.01543426513673	1168.01416015625	-831.3386840820315	-82.71007537841798	1129.030395507813	-899.9167480468752	85.67436981201173	1177.275146484375	-973.5036621093752	-119.9827499389649	1059.509521484375	-922.9261474609377	-363.5017089843751	887.5906372070315	-908.155456542969	-29.30124092102051	914.8433227539065	-900.0650024414065	4.490909576416017	948.7387695312502	-1065.607666015625	-151.621078491211	953.0087890625002	-1240.064453125	-165.3260803222657	904.8190917968752	-1242.05908203125	-207.9026489257813	930.9475097656252	-1276.49853515625	-287.4525451660157	907.6354980468752	-1308.378295898438	-328.7922668457032	957.5179443359377	-1266.227905273438	-430.5292053222657	780.969665527344	-1108.001586914063	-440.3247985839845	717.4389648437501	-1159.166870117188	-374.8359375000001	743.3097534179689	-1085.1494140625	-11.44163608551026	980.1750488281252	-737.0980224609376	-181.4700012207032	1003.32421875	-584.6552734375001	-196.0526733398438	954.6770019531252	-582.0057373046876	-238.6042175292969	979.4473876953127	-549.2875976562501	-306.0979614257813	971.2906494140627	-518.9556884765626	-360.0685729980469	1006.462036132813	-582.7430419921876	-419.5918884277345	789.3377075195315	-691.1192626953126	-415.7675170898439	738.8316650390626	-628.4585571289064	-366.7055358886719	738.4925537109376	-716.9587402343751	-378.2562866210938	624.8248901367189	-1011.663391113281	-382.5164794921876	639.0293579101564	-778.9260253906252	-477.5376281738282	809.5499267578127	-897.1933593750002	-504.5988769531251	790.6892700195315	-924.4301757812502	-506.142059326172	792.6104736328127	-867.035827636719	-316.1751098632813	576.4720458984376	-1138.3330078125	-233.1891021728516	562.8287963867189	-1153.370483398438	-204.4391326904297	593.3160400390626	-1126.215087890625	-205.0836944580079	508.0188293457032	-1162.9140625	-135.5304565429688	455.1950683593751	-1165.083740234375	-106.5920104980469	439.5285644531251	-1046.019653320313	-116.1167221069336	317.4273376464844	-1136.380859375	-186.9926300048828	317.3339233398438	-1187.185791015625	-155.0439605712891	291.4382019042969	-1166.566162109375	-202.5422058105469	224.0595245361329	-1138.988891601563	-352.9510498046876	90.38184356689455	-1148.985717773438	-318.4803466796876	92.7848358154297	-1062.515258789063	-420.0530090332032	50.92811203002931	-1095.421142578125	-195.1106719970704	60.9071731567383	-1113.4599609375	-198.2728576660157	61.14749145507814	-1160.762817382813	-253.5671386718751	37.38860702514649	-1208.563354492188	-417.360565185547	583.7399291992189	-665.5657958984376	-352.6182250976563	592.6388549804689	-653.2550048828126	-334.6671142578126	619.4727172851564	-660.1531372070314	-297.4379272460938	531.3330078125001	-639.1326293945314	-165.6486053466797	456.457000732422	-617.4827270507814	-115.0884857177735	443.1736145019532	-738.7832641601564	-170.6658477783203	272.9507446289063	-690.1536865234376	-247.7530822753907	225.8068237304688	-626.0444335937501	-217.0635070800782	204.7421264648438	-653.9569091796876	-242.0100250244141	166.9635009765625	-689.1571044921876	-344.1128234863282	95.07225036621095	-649.9381713867189	-301.4520874023438	97.3718185424805	-733.5579223632814	-409.2644653320314	52.61681747436525	-712.1310424804689	-194.3710174560547	54.42012405395509	-670.2249755859376	-204.7005310058594	61.65538787841798	-618.7491455078126	-256.9853210449219	28.31636428833009	-574.7499389648439	
789	3.94	80.09481048583986	1167.863159179688	-831.2537231445315	-82.5968704223633	1128.960083007813	-899.862487792969	85.84900665283205	1177.023315429688	-973.4630126953127	-119.9693374633789	1059.321655273438	-922.8548583984377	-363.4408874511719	887.461853027344	-908.1081542968752	-29.1074447631836	914.6685791015627	-899.9983520507815	4.597118377685548	948.5432739257815	-1065.5908203125	-151.5715026855469	952.934753417969	-1240.037109375	-165.2781677246094	904.6489868164065	-1241.980590820313	-207.8820953369141	930.856628417969	-1276.355712890625	-287.3252563476563	907.5120849609377	-1308.329833984375	-328.7078552246094	957.4414062500002	-1266.196655273438	-430.4867248535157	780.8333740234377	-1107.989379882813	-440.3438110351564	717.3258666992189	-1159.129516601563	-374.8117675781251	743.2761230468751	-1085.161010742188	-11.40312576293945	980.002624511719	-737.0383911132814	-181.3906555175782	1003.129089355469	-584.5183715820314	-195.9444732666016	954.400817871094	-581.9380493164064	-238.5974884033204	979.3055419921877	-549.1409912109376	-306.0486450195313	971.170593261719	-518.8287963867189	-360.0245666503907	1006.283203125	-582.5028076171876	-419.4700012207032	789.2794189453127	-691.1301269531251	-415.802947998047	738.6765747070314	-628.4304809570314	-366.6779174804688	738.4443359375001	-716.9328002929689	-378.3035583496094	625.2686157226564	-1012.698547363281	-381.3143310546876	638.9067993164064	-779.9233398437502	-477.5117797851564	809.4263305664065	-897.1625976562502	-504.6355895996095	790.5718383789065	-924.3896484375002	-505.7785644531251	792.4072265625002	-867.0529785156252	-316.1321105957032	576.4991455078126	-1138.2763671875	-232.6882476806641	561.9910278320314	-1153.495239257813	-204.5229644775391	593.2733154296876	-1126.21728515625	-205.1243743896485	508.0369262695314	-1162.958984375	-135.5282135009766	455.2241821289064	-1165.123168945313	-106.5126571655274	439.6499938964845	-1046.0458984375	-116.0977783203125	317.4271545410157	-1136.419677734375	-187.0269012451172	317.3336181640626	-1187.245727539063	-154.9090728759766	291.4882812500001	-1166.645751953125	-202.5166320800782	223.6515350341797	-1139.03857421875	-352.8962707519532	90.4127883911133	-1149.027954101563	-318.6215209960938	92.73872375488283	-1062.480834960938	-420.0713195800782	50.93003845214845	-1095.40673828125	-195.138656616211	60.89513397216798	-1113.42626953125	-197.8559570312501	60.58652877807619	-1160.606811523438	-253.5866699218751	37.31761932373048	-1208.587646484375	-417.3273315429689	583.6727905273439	-665.5260620117189	-352.6080932617188	592.6198730468751	-653.2205200195314	-334.6370239257813	619.4792480468751	-660.1197509765626	-297.4090576171876	531.3364257812501	-639.0727539062501	-165.5925903320313	456.3908081054689	-617.4306640625001	-115.0985260009766	443.1179504394532	-738.7840576171876	-170.615219116211	272.9545593261719	-690.1187744140626	-247.7189636230469	225.8160858154297	-626.0372924804689	-217.0495758056641	204.7506256103516	-653.9024047851564	-242.1403198242188	166.7811431884766	-689.1607666015626	-344.0992431640626	95.07851409912111	-649.9500732421876	-301.4822387695313	97.3432312011719	-733.5372314453126	-409.2344360351564	52.64305496215822	-712.1176757812501	-194.3480529785157	54.4238967895508	-670.2640380859376	-204.5765686035157	61.67964935302736	-618.7762451171876	-257.0332946777344	28.2944736480713	-574.7828979492189	
790	3.945	80.0662078857422	1167.746459960938	-831.215515136719	-82.54190826416017	1128.827758789063	-899.7875976562502	85.89581298828126	1176.80126953125	-973.4353027343752	-119.8737030029297	1059.178955078125	-922.8148193359377	-363.4175109863282	887.3550415039065	-908.0880126953127	-29.03021430969239	914.5410156250002	-899.9383544921877	4.656787872314454	948.3689575195315	-1065.51806640625	-151.4659576416016	952.8530883789065	-1239.946166992188	-165.1114349365235	904.547302246094	-1241.865844726563	-207.8448944091797	930.7392578125002	-1276.303833007813	-287.3274536132813	907.3461914062502	-1308.286010742188	-328.6307678222657	957.3729248046877	-1266.1826171875	-430.6673278808595	780.6381835937502	-1107.926635742188	-440.3436279296876	717.2623901367189	-1159.1259765625	-374.5521545410157	743.2295532226564	-1085.398315429688	-11.15922641754151	979.859313964844	-737.0402221679689	-181.1381225585938	1002.999084472656	-584.4593505859376	-195.8946533203126	954.132263183594	-581.8083496093751	-238.4952392578126	979.0828857421877	-549.1425781250001	-305.9893798828126	971.066101074219	-518.7934570312501	-359.8577575683594	1006.17724609375	-582.3744506835939	-419.5251770019532	789.191101074219	-691.0986328125001	-415.6482849121095	738.5983276367189	-628.4414062500001	-366.6510620117188	738.4146728515626	-716.9191284179689	-378.3546142578126	625.7938232421876	-1013.715515136719	-381.0043640136719	638.2303466796876	-780.8842773437502	-477.5272521972657	809.284606933594	-897.1248779296877	-504.6833801269532	790.541931152344	-924.3593750000002	-505.7691650390626	792.0618286132815	-866.9824218750002	-316.2536621093751	576.4262084960939	-1138.291015625	-233.3208770751954	562.7837524414064	-1153.365356445313	-204.5301818847657	593.2734985351564	-1126.239135742188	-205.1302032470704	507.9951782226564	-1162.987548828125	-135.5635986328125	455.1991577148439	-1165.193725585938	-106.6056213378907	439.5245361328126	-1046.133178710938	-116.106071472168	317.4205627441407	-1136.452026367188	-186.9822387695313	317.3153076171876	-1187.268920898438	-154.9073181152344	291.4842224121094	-1166.645874023438	-202.5999298095704	223.6800994873047	-1139.009155273438	-352.9475402832032	90.42716217041017	-1148.998046875	-318.4992675781251	92.7555618286133	-1062.498413085938	-420.1119995117189	50.9308204650879	-1095.401000976563	-195.106918334961	60.9133987426758	-1113.439086914063	-198.3476562500001	61.16776275634767	-1160.712158203125	-253.6110839843751	37.34748077392579	-1208.539306640625	-417.329315185547	583.6799316406251	-665.4564819335939	-352.5802917480469	592.5302734375001	-653.1998291015626	-334.6074218750001	619.4783325195314	-660.0070800781251	-297.3681030273438	531.3178100585939	-639.0153198242189	-165.5805053710938	456.3353881835939	-617.3794555664064	-115.0088272094727	443.0365600585939	-738.7018432617189	-170.5673522949219	272.9901123046876	-690.0884399414064	-247.7201080322266	225.7577056884766	-625.9919433593751	-217.0528717041016	204.7117614746094	-653.9115600585939	-241.9963684082032	166.9341583251953	-689.1569213867189	-344.1160888671876	95.06806945800783	-649.9385986328126	-301.4183654785157	97.38536071777347	-733.5211791992189	-409.2287902832032	52.63442993164064	-712.0966186523439	-194.3408508300782	54.42603683471681	-670.2352294921876	-204.6436157226563	61.69200515747072	-618.7476806640626	-256.9950866699219	28.28564453125001	-574.7559814453126	
